<svg version="1.1" id="Layer_1" xmlns="http://www.w3.org/2000/svg" xmlns:xlink="http://www.w3.org/1999/xlink" x="0px" y="0px"
	 width="100%" viewBox="0 0 92 92" enable-background="new 0 0 92 92" xml:space="preserve">
<path fill="#FFFFFF" opacity="1.000000" stroke="none" 
	d="
M1.000000,32.000000 
	C1.000000,21.696106 1.000000,11.392212 1.000000,1.044159 
	C31.549805,1.044159 62.099689,1.044159 93.000000,1.044159 
	C93.000000,11.018172 93.000000,21.040428 92.531349,31.529121 
	C61.708466,31.997040 31.354233,31.998520 1.000000,32.000000 
z"/>
<path fill="#FFFFFF" opacity="1.000000" stroke="none" 
	d="
M93.000000,62.000000 
	C93.000000,72.303894 93.000000,82.607796 93.000000,92.955841 
	C62.450184,92.955841 31.900291,92.955841 1.000000,92.955841 
	C1.000000,82.981827 1.000000,72.959572 1.468653,62.470879 
	C32.291538,62.002960 62.645767,62.001480 93.000000,62.000000 
z"/>
<path fill="#CC0000" opacity="1.000000" stroke="none" 
	d="
M93.000000,61.531342 
	C62.645767,62.001480 32.291538,62.002960 1.468653,62.002220 
	C1.000000,52.312439 1.000000,42.624878 1.000000,32.468658 
	C31.354233,31.998520 61.708466,31.997040 92.531349,31.997780 
	C93.000000,41.687561 93.000000,51.375122 93.000000,61.531342 
z"/>
</svg>